<svg width="24" height="25" viewBox="0 0 24 25" fill="none" xmlns="http://www.w3.org/2000/svg">
<g clip-path="url(#clip0_1_31)">
<path d="M23.0391 7.48438H20.4141V6.07812C20.4141 5.29688 20.1406 4.63281 19.5938 4.08594C19.0469 3.53906 18.3828 3.26562 17.6016 3.26562H14.7891C14.5234 3.26562 14.3008 3.35547 14.1211 3.53516C13.9414 3.71484 13.8516 3.9375 13.8516 4.20312C13.8516 4.46875 13.9414 4.69141 14.1211 4.87109C14.3008 5.05078 14.5234 5.14062 14.7891 5.14062H17.6016C17.8672 5.14062 18.0898 5.23047 18.2695 5.41016C18.4492 5.58984 18.5391 5.8125 18.5391 6.07812V7.48438H5.41406V6.07812C5.41406 5.8125 5.50391 5.58984 5.68359 5.41016C5.86328 5.23047 6.08594 5.14062 6.35156 5.14062H9.16406C9.42969 5.14062 9.65234 5.05078 9.83203 4.87109C10.0117 4.69141 10.1016 4.46875 10.1016 4.20312C10.1016 3.9375 10.0117 3.71484 9.83203 3.53516C9.65234 3.35547 9.42969 3.26562 9.16406 3.26562H6.35156C5.57031 3.26562 4.90625 3.53906 4.35938 4.08594C3.8125 4.63281 3.53906 5.29688 3.53906 6.07812V7.48438H0.914062C0.617188 7.48438 0.375 7.60156 0.1875 7.83594C0 8.07031 -0.0625 8.33594 0 8.63281L2.85938 21.1016C2.90625 21.3203 3.01562 21.4961 3.1875 21.6289C3.35938 21.7617 3.55469 21.8281 3.77344 21.8281H20.1797C20.3984 21.8281 20.5938 21.7617 20.7656 21.6289C20.9375 21.4961 21.0469 21.3203 21.0938 21.1016L23.9531 8.63281C24.0156 8.33594 23.9531 8.07031 23.7656 7.83594C23.5781 7.60156 23.3359 7.48438 23.0391 7.48438ZM19.4297 19.9531H4.52344L2.08594 9.35938H21.8672L19.4297 19.9531ZM10.5703 12.3125V17C10.5703 17.2656 10.4805 17.4883 10.3008 17.668C10.1211 17.8477 9.89844 17.9375 9.63281 17.9375C9.36719 17.9375 9.14453 17.8477 8.96484 17.668C8.78516 17.4883 8.69531 17.2656 8.69531 17V12.3125C8.69531 12.0469 8.78516 11.8242 8.96484 11.6445C9.14453 11.4648 9.36719 11.375 9.63281 11.375C9.89844 11.375 10.1211 11.4648 10.3008 11.6445C10.4805 11.8242 10.5703 12.0469 10.5703 12.3125ZM15.2578 12.3125V17C15.2578 17.2656 15.168 17.4883 14.9883 17.668C14.8086 17.8477 14.5859 17.9375 14.3203 17.9375C14.0547 17.9375 13.832 17.8477 13.6523 17.668C13.4727 17.4883 13.3828 17.2656 13.3828 17V12.3125C13.3828 12.0469 13.4727 11.8242 13.6523 11.6445C13.832 11.4648 14.0547 11.375 14.3203 11.375C14.5859 11.375 14.8086 11.4648 14.9883 11.6445C15.168 11.8242 15.2578 12.0469 15.2578 12.3125Z" fill="#1B2336"/>
</g>
<defs>
<clipPath id="clip0_1_31">
<rect width="24" height="25" fill="white" transform="matrix(1 0 0 -1 0 25)"/>
</clipPath>
</defs>
</svg>
