<svg width="80" height="80" viewBox="0 0 80 80" fill="none" xmlns="http://www.w3.org/2000/svg">
<g clip-path="url(#clip0_1_183)">
<path d="M78.4 61.3333H76.8V22.1333C76.8 19.8222 76.0444 17.9111 74.5333 16.3999C73.0222 14.8888 71.2 14.1333 69.0667 14.1333H64.2667V10.3999C64.2667 8.62216 63.6889 7.15549 62.5333 5.99994C61.3778 4.84438 60 4.26661 58.4 4.26661H38.6667C36.8889 4.26661 35.4222 4.84438 34.2667 5.99994C33.1111 7.15549 32.5333 8.62216 32.5333 10.3999V14.1333H10.9333C8.8 14.1333 6.97778 14.8888 5.46667 16.3999C3.95556 17.9111 3.2 19.8222 3.2 22.1333V61.3333H1.6C1.06667 61.3333 0.666667 61.5111 0.4 61.8666C0.133333 62.2222 0 62.5777 0 62.9333C0 66.4888 1.24444 69.5111 3.73333 71.9999C6.22222 74.4888 9.24444 75.7333 12.8 75.7333H33.0667C33.4222 75.7333 33.7333 75.5999 34 75.3333C34.2667 75.0666 34.4 74.7111 34.4 74.2666C34.4 73.8222 34.2667 73.4222 34 73.0666C33.7333 72.7111 33.4222 72.5333 33.0667 72.5333H12.8C10.4889 72.5333 8.4 71.7777 6.53333 70.2666C4.66667 68.7555 3.55556 66.8444 3.2 64.5333H76.8C76.4445 66.8444 75.3333 68.7555 73.4667 70.2666C71.6 71.7777 69.5111 72.5333 67.2 72.5333H46.9333C46.5778 72.5333 46.2667 72.7111 46 73.0666C45.7333 73.4222 45.6 73.8222 45.6 74.2666C45.6 74.7111 45.7333 75.0666 46 75.3333C46.2667 75.5999 46.5778 75.7333 46.9333 75.7333H67.2C70.7556 75.7333 73.7778 74.4888 76.2667 71.9999C78.7556 69.5111 80 66.4888 80 62.9333C80 62.5777 79.8667 62.2222 79.6 61.8666C79.3333 61.5111 78.9333 61.3333 78.4 61.3333ZM35.7333 10.3999C35.7333 9.51105 36 8.79994 36.5333 8.26661C37.0667 7.73328 37.7778 7.46661 38.6667 7.46661H58.4C59.1111 7.46661 59.7778 7.73328 60.4 8.26661C61.0222 8.79994 61.3333 9.51105 61.3333 10.3999V24.7999C61.3333 25.5111 61.0222 26.1777 60.4 26.7999C59.7778 27.4222 59.1111 27.7333 58.4 27.7333H43.7333C43.2 27.7333 42.8444 27.8222 42.6667 27.9999L40 30.3999V29.0666C40 28.7111 39.8667 28.3999 39.6 28.1333C39.3333 27.8666 38.8889 27.7333 38.2667 27.7333C37.6444 27.7333 37.0667 27.4222 36.5333 26.7999C36 26.1777 35.7333 25.5111 35.7333 24.7999V10.3999ZM6.13333 22.1333C6.13333 20.7111 6.62222 19.5555 7.6 18.6666C8.57778 17.7777 9.68889 17.3333 10.9333 17.3333H32.5333V20.5333H10.9333C10.5778 20.5333 10.2222 20.6666 9.86667 20.9333C9.51111 21.1999 9.33333 21.5999 9.33333 22.1333V61.3333H6.13333V22.1333ZM18.9333 61.3333V60.5333C18.9333 58.2222 19.7333 56.2222 21.3333 54.5333C22.9333 52.8444 24.8889 51.9999 27.2 51.9999H28V54.9333C28 55.4666 28.1333 55.8666 28.4 56.1333C28.6667 56.3999 29.0222 56.5333 29.4667 56.5333C29.9111 56.5333 30.2667 56.3999 30.5333 56.1333C30.8 55.8666 30.9333 55.4666 30.9333 54.9333V51.9999H31.7333C34.0444 51.9999 36 52.8444 37.6 54.5333C39.2 56.2222 40 58.2222 40 60.5333V61.3333H18.9333ZM33.6 44.7999C33.6 45.8666 33.2 46.7999 32.4 47.5999C31.6 48.3999 30.6222 48.7999 29.4667 48.7999C28.3111 48.7999 27.3333 48.3999 26.5333 47.5999C25.7333 46.7999 25.3333 45.8666 25.3333 44.7999V43.7333C25.3333 42.6666 25.7333 41.7333 26.5333 40.9333C27.3333 40.1333 28.3111 39.7333 29.4667 39.7333C30.6222 39.7333 31.6 40.1333 32.4 40.9333C33.2 41.7333 33.6 42.6666 33.6 43.7333V44.7999ZM43.2 61.3333V60.5333C43.2 57.8666 42.4444 55.5111 40.9333 53.4666C39.4222 51.4222 37.4222 50.0444 34.9333 49.3333C36 48.0888 36.5333 46.5777 36.5333 44.7999V43.7333C36.5333 41.7777 35.8667 40.0888 34.5333 38.6666C33.2 37.2444 31.5111 36.5333 29.4667 36.5333C27.4222 36.5333 25.7333 37.2444 24.4 38.6666C23.0667 40.0888 22.4 41.7777 22.4 43.7333V44.7999C22.4 46.5777 22.9333 48.0888 24 49.3333C21.5111 50.0444 19.5111 51.4222 18 53.4666C16.4889 55.5111 15.7333 57.8666 15.7333 60.5333V61.3333H12.5333V23.4666H32.5333V24.7999C32.5333 26.0444 32.9333 27.2444 33.7333 28.3999C34.5333 29.5555 35.6444 30.3111 37.0667 30.6666V34.3999C37.0667 34.9333 37.3333 35.3777 37.8667 35.7333H38.6667C39.0222 35.7333 39.3778 35.6444 39.7333 35.4666L44.2667 30.6666H58.4C60 30.6666 61.3778 30.0888 62.5333 28.9333C63.6889 27.7777 64.2667 26.3999 64.2667 24.7999V23.4666H67.4667V61.3333H43.2ZM70.6667 61.3333V22.1333C70.6667 21.5999 70.4889 21.1999 70.1333 20.9333C69.7778 20.6666 69.4222 20.5333 69.0667 20.5333H64.2667V17.3333H69.0667C70.3111 17.3333 71.4222 17.7777 72.4 18.6666C73.3778 19.5555 73.8667 20.7111 73.8667 22.1333V61.3333H70.6667ZM43.4667 66.9333H36.5333C36.1778 66.9333 35.8222 67.1111 35.4667 67.4666C35.1111 67.8222 34.9333 68.2222 34.9333 68.6666C34.9333 69.1111 35.1111 69.4666 35.4667 69.7333C35.8222 69.9999 36.1778 70.1333 36.5333 70.1333H43.4667C44 70.1333 44.4 69.9999 44.6667 69.7333C44.9333 69.4666 45.0667 69.1111 45.0667 68.6666C45.0667 68.2222 44.9333 67.8222 44.6667 67.4666C44.4 67.1111 44 66.9333 43.4667 66.9333ZM44.8 23.4666C45.3333 23.8222 45.8667 23.9999 46.4 23.9999C46.9333 23.9999 47.3778 23.8222 47.7333 23.4666L53.6 19.9999C54.6667 19.4666 55.2 18.6222 55.2 17.4666C55.2 16.3111 54.6667 15.4666 53.6 14.9333L47.7333 11.4666C46.8444 10.9333 45.8667 10.9333 44.8 11.4666C43.7333 11.9999 43.2 12.8888 43.2 14.1333V20.7999C43.2 22.0444 43.7333 22.9333 44.8 23.4666ZM46.4 14.3999L52 17.5999L46.4 20.5333V14.3999ZM40 72.5333C39.6444 72.5333 39.2889 72.7111 38.9333 73.0666C38.5778 73.4222 38.4 73.8222 38.4 74.2666C38.4 74.7111 38.5778 75.0666 38.9333 75.3333C39.2889 75.5999 39.6444 75.7333 40 75.7333C40.3556 75.7333 40.7111 75.5999 41.0667 75.3333C41.4222 75.0666 41.6 74.7111 41.6 74.2666C41.6 73.8222 41.4222 73.4222 41.0667 73.0666C40.7111 72.7111 40.3556 72.5333 40 72.5333Z" fill="white"/>
</g>
<defs>
<clipPath id="clip0_1_183">
<rect width="80" height="80" fill="white" transform="matrix(1 0 0 -1 0 80)"/>
</clipPath>
</defs>
</svg>
