<svg width="80" height="72" viewBox="0 0 80 72" fill="none" xmlns="http://www.w3.org/2000/svg">
<path d="M78.4 57.3333H76.8V18.1333C76.8 15.8222 76.0444 13.9111 74.5333 12.3999C73.0222 10.8888 71.2 10.1333 69.0667 10.1333H64.2667V6.39994C64.2667 4.62216 63.6889 3.15549 62.5333 1.99994C61.3778 0.844383 60 0.266609 58.4 0.266609H38.6667C36.8889 0.266609 35.4222 0.844383 34.2667 1.99994C33.1111 3.15549 32.5333 4.62216 32.5333 6.39994V10.1333H10.9333C8.8 10.1333 6.97778 10.8888 5.46667 12.3999C3.95556 13.9111 3.2 15.8222 3.2 18.1333V57.3333H1.6C1.06667 57.3333 0.666667 57.5111 0.4 57.8666C0.133333 58.2222 0 58.5777 0 58.9333C0 62.4888 1.24444 65.5111 3.73333 67.9999C6.22222 70.4888 9.24444 71.7333 12.8 71.7333H33.0667C33.4222 71.7333 33.7333 71.5999 34 71.3333C34.2667 71.0666 34.4 70.7111 34.4 70.2666C34.4 69.8222 34.2667 69.4222 34 69.0666C33.7333 68.7111 33.4222 68.5333 33.0667 68.5333H12.8C10.4889 68.5333 8.4 67.7777 6.53333 66.2666C4.66667 64.7555 3.55556 62.8444 3.2 60.5333H76.8C76.4445 62.8444 75.3333 64.7555 73.4667 66.2666C71.6 67.7777 69.5111 68.5333 67.2 68.5333H46.9333C46.5778 68.5333 46.2667 68.7111 46 69.0666C45.7333 69.4222 45.6 69.8222 45.6 70.2666C45.6 70.7111 45.7333 71.0666 46 71.3333C46.2667 71.5999 46.5778 71.7333 46.9333 71.7333H67.2C70.7556 71.7333 73.7778 70.4888 76.2667 67.9999C78.7556 65.5111 80 62.4888 80 58.9333C80 58.5777 79.8667 58.2222 79.6 57.8666C79.3333 57.5111 78.9333 57.3333 78.4 57.3333ZM35.7333 6.39994C35.7333 5.51105 36 4.79994 36.5333 4.26661C37.0667 3.73328 37.7778 3.46661 38.6667 3.46661H58.4C59.1111 3.46661 59.7778 3.73328 60.4 4.26661C61.0222 4.79994 61.3333 5.51105 61.3333 6.39994V20.7999C61.3333 21.5111 61.0222 22.1777 60.4 22.7999C59.7778 23.4222 59.1111 23.7333 58.4 23.7333H43.7333C43.2 23.7333 42.8444 23.8222 42.6667 23.9999L40 26.3999V25.0666C40 24.7111 39.8667 24.3999 39.6 24.1333C39.3333 23.8666 38.8889 23.7333 38.2667 23.7333C37.6444 23.7333 37.0667 23.4222 36.5333 22.7999C36 22.1777 35.7333 21.5111 35.7333 20.7999V6.39994ZM6.13333 18.1333C6.13333 16.7111 6.62222 15.5555 7.6 14.6666C8.57778 13.7777 9.68889 13.3333 10.9333 13.3333H32.5333V16.5333H10.9333C10.5778 16.5333 10.2222 16.6666 9.86667 16.9333C9.51111 17.1999 9.33333 17.5999 9.33333 18.1333V57.3333H6.13333V18.1333ZM18.9333 57.3333V56.5333C18.9333 54.2222 19.7333 52.2222 21.3333 50.5333C22.9333 48.8444 24.8889 47.9999 27.2 47.9999H28V50.9333C28 51.4666 28.1333 51.8666 28.4 52.1333C28.6667 52.3999 29.0222 52.5333 29.4667 52.5333C29.9111 52.5333 30.2667 52.3999 30.5333 52.1333C30.8 51.8666 30.9333 51.4666 30.9333 50.9333V47.9999H31.7333C34.0444 47.9999 36 48.8444 37.6 50.5333C39.2 52.2222 40 54.2222 40 56.5333V57.3333H18.9333ZM33.6 40.7999C33.6 41.8666 33.2 42.7999 32.4 43.5999C31.6 44.3999 30.6222 44.7999 29.4667 44.7999C28.3111 44.7999 27.3333 44.3999 26.5333 43.5999C25.7333 42.7999 25.3333 41.8666 25.3333 40.7999V39.7333C25.3333 38.6666 25.7333 37.7333 26.5333 36.9333C27.3333 36.1333 28.3111 35.7333 29.4667 35.7333C30.6222 35.7333 31.6 36.1333 32.4 36.9333C33.2 37.7333 33.6 38.6666 33.6 39.7333V40.7999ZM43.2 57.3333V56.5333C43.2 53.8666 42.4444 51.5111 40.9333 49.4666C39.4222 47.4222 37.4222 46.0444 34.9333 45.3333C36 44.0888 36.5333 42.5777 36.5333 40.7999V39.7333C36.5333 37.7777 35.8667 36.0888 34.5333 34.6666C33.2 33.2444 31.5111 32.5333 29.4667 32.5333C27.4222 32.5333 25.7333 33.2444 24.4 34.6666C23.0667 36.0888 22.4 37.7777 22.4 39.7333V40.7999C22.4 42.5777 22.9333 44.0888 24 45.3333C21.5111 46.0444 19.5111 47.4222 18 49.4666C16.4889 51.5111 15.7333 53.8666 15.7333 56.5333V57.3333H12.5333V19.4666H32.5333V20.7999C32.5333 22.0444 32.9333 23.2444 33.7333 24.3999C34.5333 25.5555 35.6444 26.3111 37.0667 26.6666V30.3999C37.0667 30.9333 37.3333 31.3777 37.8667 31.7333H38.6667C39.0222 31.7333 39.3778 31.6444 39.7333 31.4666L44.2667 26.6666H58.4C60 26.6666 61.3778 26.0888 62.5333 24.9333C63.6889 23.7777 64.2667 22.3999 64.2667 20.7999V19.4666H67.4667V57.3333H43.2ZM70.6667 57.3333V18.1333C70.6667 17.5999 70.4889 17.1999 70.1333 16.9333C69.7778 16.6666 69.4222 16.5333 69.0667 16.5333H64.2667V13.3333H69.0667C70.3111 13.3333 71.4222 13.7777 72.4 14.6666C73.3778 15.5555 73.8667 16.7111 73.8667 18.1333V57.3333H70.6667ZM43.4667 62.9333H36.5333C36.1778 62.9333 35.8222 63.1111 35.4667 63.4666C35.1111 63.8222 34.9333 64.2222 34.9333 64.6666C34.9333 65.1111 35.1111 65.4666 35.4667 65.7333C35.8222 65.9999 36.1778 66.1333 36.5333 66.1333H43.4667C44 66.1333 44.4 65.9999 44.6667 65.7333C44.9333 65.4666 45.0667 65.1111 45.0667 64.6666C45.0667 64.2222 44.9333 63.8222 44.6667 63.4666C44.4 63.1111 44 62.9333 43.4667 62.9333ZM44.8 19.4666C45.3333 19.8222 45.8667 19.9999 46.4 19.9999C46.9333 19.9999 47.3778 19.8222 47.7333 19.4666L53.6 15.9999C54.6667 15.4666 55.2 14.6222 55.2 13.4666C55.2 12.3111 54.6667 11.4666 53.6 10.9333L47.7333 7.46661C46.8444 6.93327 45.8667 6.93327 44.8 7.46661C43.7333 7.99994 43.2 8.88883 43.2 10.1333V16.7999C43.2 18.0444 43.7333 18.9333 44.8 19.4666ZM46.4 10.3999L52 13.5999L46.4 16.5333V10.3999ZM40 68.5333C39.6444 68.5333 39.2889 68.7111 38.9333 69.0666C38.5778 69.4222 38.4 69.8222 38.4 70.2666C38.4 70.7111 38.5778 71.0666 38.9333 71.3333C39.2889 71.5999 39.6444 71.7333 40 71.7333C40.3556 71.7333 40.7111 71.5999 41.0667 71.3333C41.4222 71.0666 41.6 70.7111 41.6 70.2666C41.6 69.8222 41.4222 69.4222 41.0667 69.0666C40.7111 68.7111 40.3556 68.5333 40 68.5333Z" fill="white"/>
</svg>
